<?xml version="1.0" encoding="UTF-8" standalone="no"?>
<!-- Created with Inkscape (http://www.inkscape.org/) -->

<svg
   width="1920px"
   height="1080px"
   viewBox="0 0 1920 1080"
   version="1.1"
   id="SVGRoot"
   inkscape:version="1.2.2 (732a01da63, 2022-12-09, custom)"
   sodipodi:docname="schedule-it-customizable-schedule.svg"
   xmlns:inkscape="http://www.inkscape.org/namespaces/inkscape"
   xmlns:sodipodi="http://sodipodi.sourceforge.net/DTD/sodipodi-0.dtd"
   xmlns="http://www.w3.org/2000/svg"
   xmlns:svg="http://www.w3.org/2000/svg"
   xmlns:rdf="http://www.w3.org/1999/02/22-rdf-syntax-ns#"
   xmlns:cc="http://creativecommons.org/ns#"
   xmlns:dc="http://purl.org/dc/elements/1.1/">
  <defs
     id="defs6191" />
  <sodipodi:namedview
     id="base"
     pagecolor="#ffffff"
     bordercolor="#666666"
     borderopacity="1.0"
     inkscape:pageopacity="0.0"
     inkscape:pageshadow="2"
     inkscape:zoom="0.24748738"
     inkscape:cx="834.386"
     inkscape:cy="468.71078"
     inkscape:document-units="px"
     inkscape:current-layer="layer1"
     showgrid="true"
     inkscape:window-width="1920"
     inkscape:window-height="972"
     inkscape:window-x="0"
     inkscape:window-y="40"
     inkscape:window-maximized="1"
     inkscape:showpageshadow="2"
     inkscape:pagecheckerboard="0"
     inkscape:deskcolor="#d1d1d1">
    <inkscape:grid
       type="xygrid"
       id="grid6749"
       color="#3f3fff"
       opacity="0"
       spacingx="16"
       spacingy="12" />
  </sodipodi:namedview>
  <metadata
     id="metadata6194">
    <rdf:RDF>
      <cc:Work
         rdf:about="">
        <dc:format>image/svg+xml</dc:format>
        <dc:type
           rdf:resource="http://purl.org/dc/dcmitype/StillImage" />
      </cc:Work>
    </rdf:RDF>
  </metadata>
  <g
     inkscape:label="Layer 1"
     inkscape:groupmode="layer"
     id="layer1">
    <path
       d="m 1180.3833,1015.1289 c -4.8289,-2.621 -9.5865,-5.3657 -14.2769,-8.2404 l -16.3926,9.4208 c -12.5849,7.3471 -26.9016,11.222 -41.4113,11.222 -22.4564,0 -44.3048,-9.4187 -60.7435,-26.7339 -38.6016,-42.12416 -67.70479,-92.57253 -84.33219,-146.56445 -11.222,-37.86773 4.9127,-77.30804 37.38539,-94.85803 l 16.812,-9.78983 c -0.1384,-5.49565 -0.1384,-10.99129 0,-16.47855 l -16.0508,-9.3537 c -25.79039,-14.57887 -40.67749,-41.22257 -41.18069,-69.9903 -30.3738,-8.29484 -62.2448,-13.11742 -95.1641,-13.11742 h -212.6129 c -200.64021,0 -363.3708,162.9193 -363.3708,363.58048 0,40.0484 32.54192,72.5484 72.67417,72.5484 h 793.92232 c 12.0082,0 22.8548,-3.6211 32.8354,-8.7813 -4.7617,-10.4503 -8.0935,-21.5967 -8.0935,-33.6742 z M 758.72221,540 c 148.2418,0 268.38699,-120.16609 268.38699,-268.387 0,-148.22091 -120.14519,-268.387 -268.38699,-268.387 -148.2419,0 -268.38705,120.16609 -268.38705,268.387 0,148.22091 120.14515,268.387 268.38705,268.387 z m 810.40289,245.95152 c 5.504,-29.35482 5.504,-59.75804 0,-89.11287 l 53.9919,-31.4516 c 6.2903,-3.40726 9.1734,-10.74596 7.0766,-17.82257 -14.1532,-45.08063 -38.2661,-86.24029 -69.7177,-120.31286 -4.7177,-5.24194 -12.5806,-6.55242 -18.871,-2.88307 l -53.9919,31.19999 c -22.8129,-19.39515 -49.0225,-34.59676 -77.329,-44.55643 V 448.371 c 0,-7.07661 -5.2419,-13.36693 -12.0564,-14.67741 -46.6532,-10.48387 -94.3548,-10.22177 -138.9113,0 -6.8145,1.31048 -11.7943,7.6008 -11.7943,14.67741 v 62.65159 c -28.3065,9.95967 -54.5161,25.16128 -77.329,44.55644 l -54.1807,-31.30483 c -6.0282,-3.66935 -13.8911,-2.35887 -18.8709,2.88306 -31.4516,34.07257 -55.5645,75.23223 -69.4661,120.31286 -2.0968,7.07661 0.7865,14.41532 6.8145,17.82258 l 53.9919,31.4516 c -5.2419,29.35483 -5.2419,59.75804 0,89.11287 l -53.9919,31.4516 c -6.2903,3.40726 -8.9113,10.74596 -6.8145,17.82258 13.8911,45.08062 38.0145,85.96771 69.4661,120.31286 4.9798,5.24193 12.5806,6.55241 18.8709,2.88306 l 54.2645,-31.19999 c 22.8129,19.39515 49.0226,34.59676 77.329,44.55644 v 62.65158 c 0,7.0766 4.9799,13.3669 11.7944,14.6774 46.9258,10.4839 94.3548,10.2218 138.9112,0 6.8145,-1.3105 12.0565,-7.6008 12.0565,-14.6774 v -62.65158 c 28.3064,-9.95968 54.5161,-25.16129 77.329,-44.55644 l 53.9919,31.19999 c 6.0282,3.66935 14.1532,2.35887 18.871,-2.88306 31.4516,-34.07257 55.5645,-75.23224 69.7177,-120.31286 2.0968,-7.07662 -0.7865,-14.41532 -7.0766,-17.82258 z m -240.0806,57.03224 c -56.0887,0 -101.6935,-45.60482 -101.6935,-101.69351 0,-56.08869 45.6048,-101.69351 101.6935,-101.69351 56.0887,0 101.6935,45.60482 101.6935,101.69351 0,56.08869 -45.4999,101.69351 -101.6935,101.69351 z"
       id="path2-7"
       style="stroke-width:2.09677;fill:#6ec6ff;fill-opacity:1" />
  </g>
</svg>
